<mxfile host="app.diagrams.net" agent="Mozilla/5.0 (Windows NT 10.0; Win64; x64; rv:134.0) Gecko/20100101 Firefox/134.0" version="26.0.8">
  <diagram name="Page-1" id="oaeo6jPzhMhO_I5KYP-a">
    <mxGraphModel dx="1105" dy="708" grid="1" gridSize="10" guides="1" tooltips="1" connect="1" arrows="1" fold="1" page="1" pageScale="1" pageWidth="827" pageHeight="1169" math="0" shadow="0">
      <root>
        <mxCell id="0" />
        <mxCell id="1" parent="0" />
        <mxCell id="awvD1sH-rYWjAnUsIlxk-2" value="START" style="rounded=1;whiteSpace=wrap;html=1;" vertex="1" parent="1">
          <mxGeometry x="20" y="20" width="120" height="60" as="geometry" />
        </mxCell>
        <mxCell id="awvD1sH-rYWjAnUsIlxk-3" value="END" style="rounded=1;whiteSpace=wrap;html=1;" vertex="1" parent="1">
          <mxGeometry x="20" y="460" width="120" height="60" as="geometry" />
        </mxCell>
        <mxCell id="awvD1sH-rYWjAnUsIlxk-29" value="Change made" style="edgeStyle=orthogonalEdgeStyle;rounded=0;orthogonalLoop=1;jettySize=auto;html=1;exitX=1;exitY=0.25;exitDx=0;exitDy=0;entryX=1;entryY=0.5;entryDx=0;entryDy=0;" edge="1" parent="1" source="awvD1sH-rYWjAnUsIlxk-5" target="awvD1sH-rYWjAnUsIlxk-13">
          <mxGeometry relative="1" as="geometry">
            <Array as="points">
              <mxPoint x="190" y="275" />
              <mxPoint x="190" y="210" />
            </Array>
          </mxGeometry>
        </mxCell>
        <mxCell id="awvD1sH-rYWjAnUsIlxk-47" style="edgeStyle=orthogonalEdgeStyle;rounded=0;orthogonalLoop=1;jettySize=auto;html=1;exitX=0.5;exitY=1;exitDx=0;exitDy=0;entryX=0.5;entryY=0;entryDx=0;entryDy=0;" edge="1" parent="1" source="awvD1sH-rYWjAnUsIlxk-5" target="awvD1sH-rYWjAnUsIlxk-3">
          <mxGeometry relative="1" as="geometry" />
        </mxCell>
        <mxCell id="awvD1sH-rYWjAnUsIlxk-5" value="Main loop" style="shape=process;whiteSpace=wrap;html=1;backgroundOutline=1;" vertex="1" parent="1">
          <mxGeometry x="20" y="260" width="120" height="60" as="geometry" />
        </mxCell>
        <mxCell id="awvD1sH-rYWjAnUsIlxk-18" style="edgeStyle=orthogonalEdgeStyle;rounded=0;orthogonalLoop=1;jettySize=auto;html=1;exitX=0.5;exitY=1;exitDx=0;exitDy=0;entryX=0.5;entryY=0;entryDx=0;entryDy=0;" edge="1" parent="1" source="awvD1sH-rYWjAnUsIlxk-11" target="awvD1sH-rYWjAnUsIlxk-26">
          <mxGeometry relative="1" as="geometry">
            <mxPoint x="540.2631578947369" y="119.99999999999989" as="targetPoint" />
          </mxGeometry>
        </mxCell>
        <mxCell id="awvD1sH-rYWjAnUsIlxk-11" value="MAIN LOOP START" style="rounded=1;whiteSpace=wrap;html=1;" vertex="1" parent="1">
          <mxGeometry x="480" y="20" width="120" height="60" as="geometry" />
        </mxCell>
        <mxCell id="awvD1sH-rYWjAnUsIlxk-15" style="edgeStyle=orthogonalEdgeStyle;rounded=0;orthogonalLoop=1;jettySize=auto;html=1;exitX=0.5;exitY=1;exitDx=0;exitDy=0;entryX=0.5;entryY=0;entryDx=0;entryDy=0;" edge="1" parent="1" source="awvD1sH-rYWjAnUsIlxk-13" target="awvD1sH-rYWjAnUsIlxk-5">
          <mxGeometry relative="1" as="geometry" />
        </mxCell>
        <mxCell id="awvD1sH-rYWjAnUsIlxk-13" value="CPU Setup" style="shape=process;whiteSpace=wrap;html=1;backgroundOutline=1;" vertex="1" parent="1">
          <mxGeometry x="20" y="180" width="120" height="60" as="geometry" />
        </mxCell>
        <mxCell id="awvD1sH-rYWjAnUsIlxk-14" value="" style="endArrow=classic;html=1;rounded=0;entryX=0.5;entryY=0;entryDx=0;entryDy=0;" edge="1" parent="1" target="awvD1sH-rYWjAnUsIlxk-13">
          <mxGeometry width="50" height="50" relative="1" as="geometry">
            <mxPoint x="80" y="130" as="sourcePoint" />
            <mxPoint x="480" y="260" as="targetPoint" />
          </mxGeometry>
        </mxCell>
        <mxCell id="awvD1sH-rYWjAnUsIlxk-19" style="edgeStyle=orthogonalEdgeStyle;rounded=0;orthogonalLoop=1;jettySize=auto;html=1;exitX=0.5;exitY=1;exitDx=0;exitDy=0;entryX=0.5;entryY=0;entryDx=0;entryDy=0;" edge="1" parent="1" source="awvD1sH-rYWjAnUsIlxk-16" target="awvD1sH-rYWjAnUsIlxk-20">
          <mxGeometry relative="1" as="geometry">
            <mxPoint x="740.2631578947369" y="889.9999999999999" as="targetPoint" />
          </mxGeometry>
        </mxCell>
        <mxCell id="awvD1sH-rYWjAnUsIlxk-16" value="Initial Setup" style="rounded=1;whiteSpace=wrap;html=1;" vertex="1" parent="1">
          <mxGeometry x="680" y="790" width="120" height="60" as="geometry" />
        </mxCell>
        <mxCell id="awvD1sH-rYWjAnUsIlxk-20" value="Load shaders" style="rounded=0;whiteSpace=wrap;html=1;" vertex="1" parent="1">
          <mxGeometry x="680" y="890" width="120" height="60" as="geometry" />
        </mxCell>
        <mxCell id="awvD1sH-rYWjAnUsIlxk-24" style="edgeStyle=orthogonalEdgeStyle;rounded=0;orthogonalLoop=1;jettySize=auto;html=1;exitX=0.5;exitY=1;exitDx=0;exitDy=0;entryX=0.5;entryY=0;entryDx=0;entryDy=0;" edge="1" parent="1" source="awvD1sH-rYWjAnUsIlxk-21" target="awvD1sH-rYWjAnUsIlxk-23">
          <mxGeometry relative="1" as="geometry" />
        </mxCell>
        <mxCell id="awvD1sH-rYWjAnUsIlxk-21" value="Determine values for window size, canvas size, etc." style="rounded=0;whiteSpace=wrap;html=1;" vertex="1" parent="1">
          <mxGeometry x="680" y="1000" width="120" height="60" as="geometry" />
        </mxCell>
        <mxCell id="awvD1sH-rYWjAnUsIlxk-22" value="" style="endArrow=classic;html=1;rounded=0;exitX=0.5;exitY=1;exitDx=0;exitDy=0;" edge="1" parent="1" source="awvD1sH-rYWjAnUsIlxk-20" target="awvD1sH-rYWjAnUsIlxk-21">
          <mxGeometry width="50" height="50" relative="1" as="geometry">
            <mxPoint x="670" y="1150" as="sourcePoint" />
            <mxPoint x="720" y="1100" as="targetPoint" />
          </mxGeometry>
        </mxCell>
        <mxCell id="awvD1sH-rYWjAnUsIlxk-23" value="Draw inital scene" style="rounded=0;whiteSpace=wrap;html=1;" vertex="1" parent="1">
          <mxGeometry x="680" y="1100" width="120" height="60" as="geometry" />
        </mxCell>
        <mxCell id="awvD1sH-rYWjAnUsIlxk-28" style="edgeStyle=orthogonalEdgeStyle;rounded=0;orthogonalLoop=1;jettySize=auto;html=1;exitX=0.5;exitY=1;exitDx=0;exitDy=0;entryX=0.5;entryY=0;entryDx=0;entryDy=0;" edge="1" parent="1" source="awvD1sH-rYWjAnUsIlxk-26" target="awvD1sH-rYWjAnUsIlxk-32">
          <mxGeometry relative="1" as="geometry">
            <mxPoint x="540" y="200" as="targetPoint" />
          </mxGeometry>
        </mxCell>
        <mxCell id="awvD1sH-rYWjAnUsIlxk-26" value="Render" style="shape=process;whiteSpace=wrap;html=1;backgroundOutline=1;" vertex="1" parent="1">
          <mxGeometry x="480" y="120" width="120" height="60" as="geometry" />
        </mxCell>
        <mxCell id="awvD1sH-rYWjAnUsIlxk-32" value="&lt;div&gt;Pygame input&lt;/div&gt;&lt;div&gt;event&lt;/div&gt;" style="shape=parallelogram;perimeter=parallelogramPerimeter;whiteSpace=wrap;html=1;fixedSize=1;" vertex="1" parent="1">
          <mxGeometry x="480" y="200" width="120" height="60" as="geometry" />
        </mxCell>
        <mxCell id="awvD1sH-rYWjAnUsIlxk-40" style="edgeStyle=orthogonalEdgeStyle;rounded=0;orthogonalLoop=1;jettySize=auto;html=1;exitX=0;exitY=0.5;exitDx=0;exitDy=0;" edge="1" parent="1" source="awvD1sH-rYWjAnUsIlxk-33">
          <mxGeometry relative="1" as="geometry">
            <mxPoint x="340" y="320.42105263157896" as="targetPoint" />
          </mxGeometry>
        </mxCell>
        <mxCell id="awvD1sH-rYWjAnUsIlxk-41" value="Mouse Up" style="edgeLabel;html=1;align=center;verticalAlign=middle;resizable=0;points=[];" vertex="1" connectable="0" parent="awvD1sH-rYWjAnUsIlxk-40">
          <mxGeometry x="0.1596" relative="1" as="geometry">
            <mxPoint as="offset" />
          </mxGeometry>
        </mxCell>
        <mxCell id="awvD1sH-rYWjAnUsIlxk-42" value="Mouse Move" style="edgeStyle=orthogonalEdgeStyle;rounded=0;orthogonalLoop=1;jettySize=auto;html=1;exitX=1;exitY=1;exitDx=0;exitDy=0;entryX=0.5;entryY=0;entryDx=0;entryDy=0;" edge="1" parent="1" source="awvD1sH-rYWjAnUsIlxk-33" target="awvD1sH-rYWjAnUsIlxk-49">
          <mxGeometry relative="1" as="geometry">
            <mxPoint x="640" y="400" as="targetPoint" />
          </mxGeometry>
        </mxCell>
        <mxCell id="awvD1sH-rYWjAnUsIlxk-50" style="edgeStyle=orthogonalEdgeStyle;rounded=0;orthogonalLoop=1;jettySize=auto;html=1;exitX=0;exitY=0;exitDx=0;exitDy=0;entryX=0;entryY=0.5;entryDx=0;entryDy=0;" edge="1" parent="1">
          <mxGeometry relative="1" as="geometry">
            <mxPoint x="518" y="300" as="sourcePoint" />
            <mxPoint x="478" y="150" as="targetPoint" />
            <Array as="points">
              <mxPoint x="458" y="300" />
              <mxPoint x="458" y="150" />
            </Array>
          </mxGeometry>
        </mxCell>
        <mxCell id="awvD1sH-rYWjAnUsIlxk-51" value="Other/None" style="edgeLabel;html=1;align=center;verticalAlign=middle;resizable=0;points=[];" vertex="1" connectable="0" parent="awvD1sH-rYWjAnUsIlxk-50">
          <mxGeometry x="0.3146" y="1" relative="1" as="geometry">
            <mxPoint as="offset" />
          </mxGeometry>
        </mxCell>
        <mxCell id="awvD1sH-rYWjAnUsIlxk-33" value="&lt;div&gt;What was&lt;/div&gt;&lt;div&gt;the event?&lt;/div&gt;" style="rhombus;whiteSpace=wrap;html=1;" vertex="1" parent="1">
          <mxGeometry x="500" y="280" width="80" height="80" as="geometry" />
        </mxCell>
        <mxCell id="awvD1sH-rYWjAnUsIlxk-34" value="" style="endArrow=classic;html=1;rounded=0;exitX=0.5;exitY=1;exitDx=0;exitDy=0;entryX=0.5;entryY=0;entryDx=0;entryDy=0;" edge="1" parent="1" source="awvD1sH-rYWjAnUsIlxk-32" target="awvD1sH-rYWjAnUsIlxk-33">
          <mxGeometry width="50" height="50" relative="1" as="geometry">
            <mxPoint x="670" y="360" as="sourcePoint" />
            <mxPoint x="720" y="310" as="targetPoint" />
          </mxGeometry>
        </mxCell>
        <mxCell id="awvD1sH-rYWjAnUsIlxk-35" value="" style="endArrow=classic;html=1;rounded=0;exitX=0.5;exitY=1;exitDx=0;exitDy=0;entryX=0.5;entryY=0;entryDx=0;entryDy=0;" edge="1" parent="1" source="awvD1sH-rYWjAnUsIlxk-33" target="awvD1sH-rYWjAnUsIlxk-36">
          <mxGeometry width="50" height="50" relative="1" as="geometry">
            <mxPoint x="670" y="360" as="sourcePoint" />
            <mxPoint x="540" y="480" as="targetPoint" />
          </mxGeometry>
        </mxCell>
        <mxCell id="awvD1sH-rYWjAnUsIlxk-37" value="Exit" style="edgeLabel;html=1;align=center;verticalAlign=middle;resizable=0;points=[];" vertex="1" connectable="0" parent="awvD1sH-rYWjAnUsIlxk-35">
          <mxGeometry x="-0.2126" y="1" relative="1" as="geometry">
            <mxPoint x="-1" y="31" as="offset" />
          </mxGeometry>
        </mxCell>
        <mxCell id="awvD1sH-rYWjAnUsIlxk-36" value="MAIN LOOP END" style="rounded=1;whiteSpace=wrap;html=1;" vertex="1" parent="1">
          <mxGeometry x="480" y="740" width="120" height="60" as="geometry" />
        </mxCell>
        <mxCell id="awvD1sH-rYWjAnUsIlxk-38" value="" style="endArrow=classic;html=1;rounded=0;exitX=1;exitY=0.5;exitDx=0;exitDy=0;entryX=0;entryY=0.5;entryDx=0;entryDy=0;" edge="1" parent="1" source="awvD1sH-rYWjAnUsIlxk-33" target="awvD1sH-rYWjAnUsIlxk-43">
          <mxGeometry width="50" height="50" relative="1" as="geometry">
            <mxPoint x="670" y="360" as="sourcePoint" />
            <mxPoint x="730" y="320" as="targetPoint" />
          </mxGeometry>
        </mxCell>
        <mxCell id="awvD1sH-rYWjAnUsIlxk-39" value="Mouse Down" style="edgeLabel;html=1;align=center;verticalAlign=middle;resizable=0;points=[];" vertex="1" connectable="0" parent="awvD1sH-rYWjAnUsIlxk-38">
          <mxGeometry x="-0.0439" y="2" relative="1" as="geometry">
            <mxPoint x="-12" y="2" as="offset" />
          </mxGeometry>
        </mxCell>
        <mxCell id="awvD1sH-rYWjAnUsIlxk-43" value="Collision detect with all items" style="shape=process;whiteSpace=wrap;html=1;backgroundOutline=1;size=0;" vertex="1" parent="1">
          <mxGeometry x="707" y="290" width="120" height="60" as="geometry" />
        </mxCell>
        <mxCell id="awvD1sH-rYWjAnUsIlxk-45" value="" style="edgeStyle=orthogonalEdgeStyle;rounded=0;orthogonalLoop=1;jettySize=auto;html=1;exitX=0.5;exitY=1;exitDx=0;exitDy=0;" edge="1" parent="1" source="awvD1sH-rYWjAnUsIlxk-44" target="awvD1sH-rYWjAnUsIlxk-13">
          <mxGeometry relative="1" as="geometry" />
        </mxCell>
        <mxCell id="awvD1sH-rYWjAnUsIlxk-44" value="Load Shaders" style="rounded=0;whiteSpace=wrap;html=1;" vertex="1" parent="1">
          <mxGeometry x="20" y="100" width="120" height="60" as="geometry" />
        </mxCell>
        <mxCell id="awvD1sH-rYWjAnUsIlxk-46" value="" style="endArrow=classic;html=1;rounded=0;exitX=0.5;exitY=1;exitDx=0;exitDy=0;entryX=0.5;entryY=0;entryDx=0;entryDy=0;" edge="1" parent="1" source="awvD1sH-rYWjAnUsIlxk-2" target="awvD1sH-rYWjAnUsIlxk-44">
          <mxGeometry width="50" height="50" relative="1" as="geometry">
            <mxPoint x="430" y="170" as="sourcePoint" />
            <mxPoint x="480" y="120" as="targetPoint" />
          </mxGeometry>
        </mxCell>
        <mxCell id="awvD1sH-rYWjAnUsIlxk-49" value="Is mouse down?" style="rhombus;whiteSpace=wrap;html=1;" vertex="1" parent="1">
          <mxGeometry x="600" y="400" width="80" height="80" as="geometry" />
        </mxCell>
        <mxCell id="awvD1sH-rYWjAnUsIlxk-53" value="" style="endArrow=classic;html=1;rounded=0;exitX=1;exitY=0.5;exitDx=0;exitDy=0;entryX=0;entryY=0.5;entryDx=0;entryDy=0;" edge="1" parent="1" source="awvD1sH-rYWjAnUsIlxk-43" target="awvD1sH-rYWjAnUsIlxk-54">
          <mxGeometry width="50" height="50" relative="1" as="geometry">
            <mxPoint x="510" y="380" as="sourcePoint" />
            <mxPoint x="767" y="400" as="targetPoint" />
          </mxGeometry>
        </mxCell>
        <mxCell id="awvD1sH-rYWjAnUsIlxk-56" style="edgeStyle=orthogonalEdgeStyle;rounded=0;orthogonalLoop=1;jettySize=auto;html=1;exitX=0.5;exitY=1;exitDx=0;exitDy=0;" edge="1" parent="1" source="awvD1sH-rYWjAnUsIlxk-54">
          <mxGeometry relative="1" as="geometry">
            <mxPoint x="766.578947368421" y="560" as="targetPoint" />
          </mxGeometry>
        </mxCell>
        <mxCell id="awvD1sH-rYWjAnUsIlxk-57" style="edgeStyle=orthogonalEdgeStyle;rounded=0;orthogonalLoop=1;jettySize=auto;html=1;exitX=0.5;exitY=0;exitDx=0;exitDy=0;entryX=1;entryY=0.5;entryDx=0;entryDy=0;" edge="1" parent="1" source="awvD1sH-rYWjAnUsIlxk-54" target="awvD1sH-rYWjAnUsIlxk-26">
          <mxGeometry relative="1" as="geometry" />
        </mxCell>
        <mxCell id="awvD1sH-rYWjAnUsIlxk-54" value="Did an item collide with the mouse?" style="rhombus;whiteSpace=wrap;html=1;" vertex="1" parent="1">
          <mxGeometry x="940" y="270" width="97" height="100" as="geometry" />
        </mxCell>
      </root>
    </mxGraphModel>
  </diagram>
</mxfile>
